<svg width="50" height="50" viewBox="0 0 50 50" fill="none" xmlns="http://www.w3.org/2000/svg">
<path fill-rule="evenodd" clip-rule="evenodd" d="M25 1.5625C11.763 1.5625 1.04166 12.2839 1.04166 25.5208C1.04166 36.1224 7.89973 45.0768 17.4232 48.2513C18.6211 48.4609 19.0703 47.7422 19.0703 47.1133C19.0703 46.5443 19.0404 44.6575 19.0404 42.651C13.0208 43.7591 11.4635 41.1836 10.9844 39.8359C10.7148 39.1471 9.54686 37.0208 8.52864 36.4518C7.69009 36.0026 6.49218 34.8945 8.49869 34.8646C10.3854 34.8346 11.7331 36.6016 12.1823 37.3203C14.3385 40.944 17.7825 39.9258 19.1601 39.2969C19.3698 37.7396 19.9987 36.6914 20.6875 36.0924C15.3568 35.4935 9.78645 33.4271 9.78645 24.263C9.78645 21.6575 10.7148 19.5013 12.2422 17.8242C12.0026 17.2253 11.1641 14.7695 12.4818 11.4753C12.4818 11.4753 14.4883 10.8464 19.0703 13.931C20.987 13.3919 23.0234 13.1224 25.0599 13.1224C27.0963 13.1224 29.1328 13.3919 31.0495 13.931C35.6315 10.8164 37.638 11.4753 37.638 11.4753C38.9557 14.7695 38.1172 17.2253 37.8776 17.8242C39.4049 19.5013 40.3333 21.6276 40.3333 24.263C40.3333 33.457 34.7331 35.4935 29.4023 36.0924C30.2708 36.8411 31.0195 38.2786 31.0195 40.5247C31.0195 43.7292 30.9896 46.3047 30.9896 47.1133C30.9896 47.7422 31.4388 48.4909 32.6367 48.2513C42.1003 45.0768 48.9583 36.0924 48.9583 25.5208C48.9583 12.2839 38.237 1.5625 25 1.5625Z" fill="#1F2328"/>
</svg>
